<svg xmlns="http://www.w3.org/2000/svg" viewBox="0 0 38.33 55.73"><g id="Layer_2" data-name="Layer 2"><g id="Layer_1-2" data-name="Layer 1"><path d="M1.66,41c1.2,9.56,6.4,14.76,18,14.76,10.84,0,16.64-6.55,16.64-14.91,0-10.77-8.36-12.81-15.36-14.46C10,23.72,6.78,21.16,6.78,15.59c0-6,3.76-9.19,11.22-9.19,8.36,0,12.65,5.35,13.56,10.62l6.77-.6C37.05,10.84,35.17,0,17.7,0,5.42,0,0,7.15,0,16.12,0,27.94,8.89,30,18.9,32.68c7.53,2,10.62,3.92,10.62,8.59,0,6.7-5.5,8.06-10.16,8.06-9.49,0-10.25-5.88-10.85-8.89Z"/></g></g></svg>